<svg height="512" viewBox="0 0 64 64" width="512" xmlns="http://www.w3.org/2000/svg"><g id="Car_Service-3" data-name="Car Service"><circle cx="13" cy="55" r="5"/><path d="m22 16a10.995 10.995 0 0 0 -3 21.574v-6.253a6.992 6.992 0 0 1 .671-12.915 1 1 0 0 1 1.329.944v4.65h2v-4.65a1 1 0 0 1 1.329-.944 6.992 6.992 0 0 1 .671 12.915v6.253a10.995 10.995 0 0 0 -3-21.574z"/><path d="m27 25a4.993 4.993 0 0 0 -2-4v4a1 1 0 0 1 -1 1h-4a1 1 0 0 1 -1-1v-4a4.995 4.995 0 0 0 1.329 8.706 1 1 0 0 1 .671.944v7.3c.33.03.662.051 1 .051s.67-.021 1-.051v-7.3a1 1 0 0 1 .671-.944 4.978 4.978 0 0 0 3.329-4.706z"/><circle cx="47" cy="55" r="5"/><circle cx="29" cy="55" r="5"/><path d="m60 41a3 3 0 0 0 -3-3h-15v12.11a6.987 6.987 0 0 1 11.92 3.89h3.08a3 3 0 0 0 3-3z"/><path d="m40 12h-36v30h36zm-18 28a13 13 0 1 1 13-13 13.015 13.015 0 0 1 -13 13z"/><path d="m35.92 54h4.08v-10h-36v10h2.08a6.991 6.991 0 0 1 13.84 0h2.16a6.991 6.991 0 0 1 13.84 0z"/><path d="m42 24v12h12v-9a3 3 0 0 0 -3-3z"/><path d="m44 4h6v6h-6z"/><path d="m28 4h6v6h-6z"/><path d="m42 10v-6h-6v6h5z"/><path d="m4 4h6v6h-6z"/><path d="m20 4h6v6h-6z"/><path d="m12 4h6v6h-6z"/></g></svg>